<?xml version="1.0" encoding="utf-8"?>
<!-- Generator: Adobe Illustrator 16.0.4, SVG Export Plug-In . SVG Version: 6.00 Build 0)  -->
<!DOCTYPE svg PUBLIC "-//W3C//DTD SVG 1.1//EN" "http://www.w3.org/Graphics/SVG/1.1/DTD/svg11.dtd">
<svg version="1.1" id="Layer_1" xmlns="http://www.w3.org/2000/svg" xmlns:xlink="http://www.w3.org/1999/xlink" x="0px" y="0px"
	 width="252px" height="82px" viewBox="0 0 252 82" style="enable-background:new 0 0 252 82;" xml:space="preserve">
<g>
	<path style="fill:#FFFFFF;" d="M103.3,26.8v28.3h28.3V26.8H103.3z M126,49.5l-8.5-11.3H109l8.5,11.3H109V38.2v-5.7h17V49.5z"/>
	<polygon style="fill:#FFFFFF;" points="182.7,26.8 182.7,55.2 188.4,55.2 188.4,38.2 188.4,32.5 205.4,32.5 205.4,38.2 188.4,38.2 
		202.5,55.2 211,55.2 201.6,43.8 211,43.8 211,26.8 	"/>
	<polygon style="fill:#FFFFFF;" points="245.1,32.5 245.1,26.8 216.7,26.8 216.7,55.2 245.1,55.2 245.1,49.5 222.4,49.5 222.4,43.8 
		245.1,43.8 245.1,38.2 222.4,38.2 222.4,32.5 	"/>
	<rect x="171.4" y="26.8" style="fill:#FFFFFF;" width="5.7" height="28.3"/>
	<polygon style="fill:#FFFFFF;" points="160,49.5 143,49.5 143,26.8 137.3,26.8 137.3,55.2 165.7,55.2 165.7,26.8 160,26.8 	"/>
	<polygon style="fill:#FFFFFF;" points="69.3,26.8 69.3,43.8 92,43.8 92,49.5 69.3,49.5 69.3,55.2 97.7,55.2 97.7,38.2 75,38.2 
		75,32.5 97.7,32.5 97.7,26.8 75,26.8 	"/>
	<g>
		<polygon style="fill:#FFFFFF;" points="35.3,26.8 35.3,55.2 29.6,60.9 24,55.2 24,26.8 6.9,26.8 6.9,55.2 29.6,77.9 52.3,55.2 
			52.3,26.8 		"/>
		<polygon style="fill:#FFFFFF;" points="32.5,21.2 41,21.2 41,15.5 32.5,15.5 32.5,4.2 26.8,4.2 26.8,15.5 18.3,15.5 18.3,21.2 
			26.8,21.2 		"/>
	</g>
</g>
</svg>
